<svg width="238" height="238" viewBox="0 0 238 238" fill="none" xmlns="http://www.w3.org/2000/svg">
<path fill-rule="evenodd" clip-rule="evenodd" d="M123.587 37.1182C121.84 37.4335 119.661 38.4771 117.925 39.8298C117.1 40.4718 115.459 42.0628 114.73 42.9254C112.606 45.4396 110.81 48.4913 109.425 51.9384C109.229 52.4256 108.689 53.8642 108.225 55.1353C107.761 56.4063 106.734 59.2142 105.943 61.375C105.152 63.5358 103.991 66.7077 103.363 68.4236C102.13 71.7935 99.641 78.5916 98.0332 82.983C97.4825 84.487 96.779 86.411 96.4698 87.2583C95.8679 88.9083 91.9768 99.5367 90.1384 104.552C89.5251 106.226 88.6936 108.497 88.2909 109.598C86.6475 114.093 86.3904 114.795 85.4156 117.456C83.9512 121.452 82.5586 125.258 81.5264 128.086C81.0315 129.442 80.2509 131.574 79.7917 132.824C79.3324 134.074 78.5702 136.154 78.0977 137.446C77.6252 138.738 76.8629 140.818 76.4036 142.068C75.9444 143.318 75.17 145.432 74.6828 146.767C74.1955 148.101 73.3466 150.424 72.7963 151.928C68.3837 163.989 67.2403 167.112 65.479 171.918C64.3767 174.927 63.368 177.676 63.2374 178.029C63.1068 178.381 63 178.684 63 178.703C63 178.721 70.0071 178.727 78.5713 178.717L94.1426 178.697L94.7896 176.926C95.1455 175.951 96.4781 172.294 97.751 168.798C100.305 161.786 103.117 154.066 105.649 147.114C106.56 144.614 108.206 140.09 109.308 137.061C110.409 134.031 111.496 131.05 111.722 130.436C112.114 129.373 112.737 127.661 113.377 125.891C113.537 125.446 114.553 122.655 115.634 119.69C118.02 113.142 120.774 105.581 125.215 93.3825C127.058 88.3195 128.896 83.2757 129.299 82.1741C129.702 81.0725 130.441 79.0446 130.94 77.6676C131.44 76.2907 132.6 73.1015 133.519 70.5805C134.438 68.0596 136.351 62.8078 137.77 58.9099C139.19 55.012 141.561 48.5004 143.04 44.4395C144.519 40.3788 145.729 37.0422 145.729 37.025C145.729 37.0079 140.885 36.9969 134.964 37.0008C125.973 37.0065 124.099 37.0259 123.587 37.1182ZM143.663 61.0476C143.535 61.3972 141.657 66.5536 139.489 72.5064C137.321 78.4592 134.67 85.7388 133.597 88.6834C131.706 93.8757 130.155 98.136 123.737 115.761C122.056 120.379 120.35 125.059 119.947 126.16C119.544 127.262 118.805 129.29 118.306 130.667C117.807 132.044 116.646 135.233 115.727 137.754C114.808 140.275 112.902 145.509 111.49 149.386C104.744 167.912 103.266 171.972 101.153 177.773C98.6836 184.555 94.1298 197.057 93.033 200.067C92.6563 201.1 92.348 201.958 92.348 201.973C92.348 201.988 97.5046 202 103.807 202H115.266L121.505 195.762L127.743 189.525L128.402 187.732C128.765 186.745 129.499 184.743 130.034 183.281C132.346 176.963 136.823 164.733 138.156 161.095C138.77 159.422 139.601 157.151 140.004 156.049C141.407 152.209 141.869 150.947 142.879 148.192C144.343 144.196 145.736 140.389 146.768 137.561C147.263 136.206 148.043 134.074 148.503 132.824C148.962 131.574 149.724 129.494 150.197 128.202C150.669 126.909 151.431 124.83 151.891 123.58C152.35 122.33 153.131 120.198 153.625 118.842C154.12 117.486 154.976 115.146 155.527 113.642C156.077 112.138 156.781 110.214 157.09 109.367C157.722 107.636 160.265 100.691 162.829 93.6906C165.394 86.69 167.937 79.7451 168.569 78.0143C168.878 77.1669 169.582 75.243 170.132 73.7389C170.683 72.2348 171.793 69.2016 172.598 66.9985C173.404 64.7953 174.273 62.4243 174.531 61.7296C174.789 61.0348 175 60.4542 175 60.4393C175 60.4243 168.001 60.4121 159.447 60.4121H143.895L143.663 61.0476Z" fill="black"/>
</svg>
