<svg width="607" height="238" viewBox="0 0 607 238" fill="none" xmlns="http://www.w3.org/2000/svg">
<path fill-rule="evenodd" clip-rule="evenodd" d="M55.0802 18.0618C54.7743 18.1046 53.5396 18.2721 52.3366 18.434C45.4346 19.3624 38.5759 22.3002 33.1049 26.6714C31.2714 28.1363 28.0585 31.3764 26.574 33.2578C22.8176 38.0182 19.8905 43.9536 18.3649 49.9037C15.7304 60.1778 16.9117 70.4303 21.8917 80.5128C26.4386 89.7183 33.3408 96.6957 42.0753 100.916C47.6778 103.623 52.8972 104.669 59.7913 104.466C66.3459 104.273 72.2492 102.825 78.0756 99.9823C85.2181 96.4973 90.0775 92.0031 92.8039 86.3611C93.2201 85.4997 93.498 84.7375 93.4215 84.6671C93.3449 84.5968 90.2791 82.8168 86.6085 80.7113C82.3844 78.2883 79.9069 76.9678 79.8585 77.1131C79.6827 77.6403 78.4491 79.8316 77.7442 80.8692C76.7413 82.3453 74.8603 84.2057 73.1525 85.4108C66.468 90.1274 57.3004 91.1845 49.9224 88.0896C39.9946 83.9249 33.3986 72.2941 33.9045 59.8451C34.2329 51.7653 37.091 44.5143 41.8833 39.6034C47.2485 34.1053 54.1 31.8212 62.0714 32.8739C69.8753 33.9045 75.8089 37.8264 78.9155 44.0076L79.5946 45.3587L85.7889 41.1008C89.1957 38.7589 92.0527 36.7733 92.1376 36.6884C92.4174 36.4087 90.9852 33.957 89.0983 31.485C87.7292 29.6913 84.6141 26.658 82.6693 25.2248C77.6635 21.5358 72.5766 19.4544 66.0216 18.4132C64.2528 18.1322 56.3825 17.8794 55.0802 18.0618ZM141.614 18.5376C138.693 18.8974 135.369 21.9916 133.426 26.1602C132.965 27.1491 130.032 35.0812 121.655 57.9915C118.863 65.6276 116.578 71.8687 113.682 79.7714C112.188 83.8493 110.477 88.5204 109.88 90.1515C109.283 91.7827 107.912 95.5294 106.834 98.4775C105.755 101.426 104.873 103.866 104.873 103.901C104.873 103.936 109.096 103.943 114.257 103.916L123.641 103.868L124.26 102.2C124.6 101.282 125.392 99.1137 126.02 97.3806C126.648 95.6475 127.434 93.4788 127.767 92.5612C128.1 91.6437 130.941 83.8447 134.082 75.23C137.222 66.6154 143.149 50.35 147.252 39.0848L154.711 18.6025L153.483 18.5583C150.287 18.4438 142.487 18.4301 141.614 18.5376ZM198.026 25.1355C195.372 32.3321 184.831 60.8865 181.245 70.596C180.021 73.9093 177.282 81.333 175.157 87.0931C173.032 92.8532 170.786 98.9245 170.166 100.585C169.545 102.245 169.037 103.684 169.037 103.782C169.037 103.894 172.199 103.961 177.521 103.96L186.005 103.959L187.744 98.8162C188.7 95.9876 190.315 91.1914 191.332 88.1578L193.183 82.6424L208.866 82.6897L224.548 82.7371L228.085 93.349L231.623 103.961H240.212C244.936 103.961 248.76 103.895 248.71 103.814C248.66 103.733 246.937 99.0829 244.88 93.4801C242.824 87.8774 239.989 80.1652 238.58 76.3422C235.977 69.2768 232.342 59.3958 227.125 45.2017C225.532 40.8689 222.679 33.1115 220.784 27.9632L217.338 18.6025L208.904 18.5552L200.47 18.5079L198.026 25.1355ZM240.889 18.8342C240.957 19.0127 243.065 22.8287 245.573 27.3144C248.081 31.8001 251.508 37.9309 253.188 40.9384C254.868 43.9458 257.854 49.2842 259.824 52.8014C261.794 56.3186 265.247 62.4911 267.497 66.5181L271.588 73.8398L271.589 88.9004L271.589 103.961H279.841H288.094V89.0418V74.1229L292.476 66.2888C294.886 61.9803 299.047 54.5346 301.723 49.743C304.398 44.9514 308.988 36.7353 311.923 31.485C319.024 18.7787 319.063 18.7085 319.063 18.6002C319.063 18.5485 315.041 18.5279 310.124 18.5543L301.186 18.6025L300.151 20.5487C298.935 22.8352 297.639 25.261 295.05 30.0948C294.012 32.0318 290.175 39.2262 286.524 46.0821C282.872 52.9382 279.833 58.5456 279.77 58.5428C279.707 58.5402 278.802 56.8929 277.758 54.8819C275.468 50.472 266.312 32.9836 261.893 24.5803L258.7 18.51L249.733 18.5098C241.268 18.5098 240.772 18.5279 240.889 18.8342ZM214.754 53.3575C217.892 62.7877 220.499 70.6077 220.545 70.735C220.613 70.9189 218.197 70.9667 208.854 70.9667H197.078L202.946 53.4626C206.174 43.8354 208.867 36.0154 208.931 36.0851C208.995 36.1548 211.615 43.9273 214.754 53.3575ZM138.298 89.7345C138.078 90.1677 137.326 91.6066 136.628 92.9319C135.93 94.2573 134.497 97.0099 133.443 99.0488C132.389 101.088 131.364 103.027 131.166 103.358L130.805 103.961H141.761H152.718V96.747C152.718 92.7794 152.667 89.4012 152.605 89.2399C152.505 88.9799 151.714 88.9467 145.595 88.9467H138.698L138.298 89.7345ZM234.685 134.663C234.43 134.7 233.47 134.821 232.552 134.932C224.153 135.95 215.953 139.975 209.798 146.102C203.07 152.799 198.46 162.2 197.192 171.803C196.848 174.411 196.902 180.329 197.294 183.008C198.71 192.675 203.59 202.417 210.484 209.344C216.232 215.119 223.402 218.992 231.12 220.49C233.421 220.937 234.092 220.986 238.116 220.999C242.845 221.015 244.499 220.84 248.515 219.9C258.217 217.631 266.686 212.367 270.956 205.954C272.122 204.202 273.493 201.438 273.294 201.24C273.223 201.17 271.83 200.346 270.198 199.409C268.566 198.471 265.573 196.752 263.547 195.587C261.522 194.422 259.846 193.495 259.824 193.526C259.801 193.557 259.47 194.207 259.088 194.969C257.654 197.831 255.506 200.254 252.708 202.166C249.909 204.078 247.266 205.185 243.714 205.935C241.413 206.42 236.862 206.513 234.685 206.119C225.917 204.53 218.684 197.776 215.467 188.173C213.482 182.246 213.215 176.196 214.654 169.764C216.49 161.557 221.472 154.791 228.153 151.432C233.851 148.567 242.203 148.461 248.682 151.17C252.84 152.908 256.593 156.364 258.715 160.407C259.203 161.337 259.526 161.761 259.698 161.697C260.192 161.512 272.145 153.205 272.145 153.046C272.145 152.958 271.705 152.157 271.168 151.265C267.736 145.575 262.827 141.189 256.475 138.135C251.294 135.645 245.679 134.52 238.673 134.571C236.735 134.584 234.94 134.626 234.685 134.663ZM20.3091 177.825V220.553H28.5609H36.8127L36.8596 192.517L36.9065 164.481L41.5241 173.286C44.0636 178.128 47.3258 184.342 48.773 187.095C50.2204 189.848 52.9743 195.103 54.8928 198.773C56.8114 202.443 58.4967 205.635 58.6379 205.866L58.8947 206.286L63.478 206.237L68.0615 206.187L68.9505 204.519C69.7769 202.968 72.0332 198.669 79.6506 184.129C81.3063 180.969 83.3899 177.007 84.2806 175.325C85.1715 173.642 86.8103 170.523 87.9222 168.392L89.9442 164.518L89.9911 192.535L90.038 220.553H98.2898H106.542V177.825V135.098L97.6895 135.146L88.8376 135.194L84.5618 143.35C82.2101 147.836 78.9496 154.05 77.3162 157.159C75.6828 160.269 71.8891 167.505 68.8858 173.24C65.4039 179.89 63.3719 183.584 63.2779 183.435C63.0893 183.137 59.6684 176.592 54.5336 166.705C47.6535 153.458 42.5858 143.715 40.3132 139.365L38.1344 135.194L29.2216 135.146L20.3091 135.098V177.825ZM146.008 139.505C145.123 141.925 142.841 148.118 140.937 153.267C139.034 158.415 136.324 165.755 134.914 169.578C133.506 173.401 131.502 178.823 130.463 181.627C129.424 184.43 127.545 189.519 126.289 192.934C123.33 200.976 117.288 217.314 116.667 218.953C116.402 219.653 116.185 220.299 116.185 220.389C116.185 220.481 119.913 220.553 124.697 220.553H133.209L136.686 210.126C138.599 204.392 140.201 199.595 140.248 199.468C140.315 199.285 143.641 199.236 156.031 199.236H171.728L175.227 209.755C177.151 215.541 178.783 220.338 178.853 220.415C178.923 220.493 182.787 220.535 187.438 220.508L195.896 220.46L193.029 212.675C191.452 208.393 188.738 201.011 186.999 196.27C185.259 191.53 183.434 186.567 182.942 185.241C182.451 183.916 179.95 177.118 177.383 170.135C174.817 163.151 171.564 154.309 170.155 150.486C168.745 146.663 166.898 141.638 166.05 139.318L164.507 135.101L156.062 135.102L147.618 135.103L146.008 139.505ZM284.57 177.827V220.553H292.915H301.26V202.295V184.037H320.639H340.018V202.295V220.553H348.271H356.523V177.827V135.101H348.271H340.018V152.34V169.578H320.639H301.26V152.34V135.101H292.915H284.57V177.827ZM404.964 135.611C404.864 135.892 401.469 145.213 397.419 156.325C393.369 167.438 386.94 185.079 383.133 195.529C379.326 205.979 375.745 215.803 375.176 217.36C374.607 218.918 374.141 220.273 374.141 220.373C374.141 220.486 376.674 220.553 380.967 220.553H387.794L391.559 216.784C393.63 214.711 395.39 212.897 395.471 212.752C395.552 212.608 396.301 210.613 397.135 208.319C397.97 206.025 399.264 202.48 400.011 200.441C402.461 193.753 406.223 183.478 408.018 178.568C408.987 175.918 410.516 171.747 411.416 169.3C412.316 166.854 415.097 159.263 417.597 152.433C420.096 145.602 422.523 138.977 422.991 137.711C423.458 136.444 423.84 135.339 423.84 135.255C423.84 135.17 419.634 135.101 414.493 135.101H405.146L404.964 135.611ZM438.861 177.825V220.553H447.113H455.365L455.412 193.166L455.459 165.779L458.784 169.949C465.011 177.76 479.773 196.327 484.66 202.496C486.041 204.239 489.831 209.014 493.084 213.108L498.999 220.553H505.926H512.854V177.92V135.287H504.51H496.165L496.118 163.264L496.071 191.242L493.207 187.593C491.631 185.586 487.924 180.858 484.969 177.086C482.014 173.313 478.588 168.946 477.356 167.379C476.124 165.813 474.741 164.048 474.282 163.457C473.823 162.866 471.198 159.518 468.448 156.017C465.699 152.516 462.468 148.401 461.268 146.872C460.069 145.343 457.516 142.089 455.595 139.643L452.103 135.194L445.482 135.145L438.861 135.097V177.825ZM530.657 177.827V220.553H560.329H590V213.231V205.909H568.579H547.159L547.207 194.834L547.255 183.758L565.289 183.711L583.324 183.664L583.321 177.131C583.32 173.538 583.257 170.514 583.182 170.413C583.093 170.291 576.866 170.227 565.15 170.227H547.255L547.207 159.986L547.159 149.745L567.791 149.723C579.139 149.711 588.528 149.714 588.656 149.731C588.838 149.755 588.887 148.188 588.887 142.431V135.101H559.772H530.657V177.827ZM161.944 169.904C165.131 179.462 167.739 187.345 167.739 187.42C167.739 187.496 162.472 187.558 156.034 187.558H144.329L144.424 187.141C144.614 186.308 155.966 152.529 156.056 152.527C156.108 152.526 158.758 160.346 161.944 169.904Z" fill="black"/>
</svg>
